<?xml version="1.0" encoding="utf-8"?>
<svg width="800px" height="800px" viewBox="0 0 24 24" xmlns="http://www.w3.org/2000/svg">
  <path d="M 71.346 418.854 C 23.474 370.981 -0.5 307.989 -0.5 245.1 C -0.5 182.211 23.474 119.219 71.346 71.346 C 119.219 23.474 182.211 -0.5 245.1 -0.5 C 307.989 -0.5 370.981 23.474 418.854 71.346 C 466.726 119.219 490.7 182.211 490.7 245.1 C 490.7 307.989 466.726 370.981 418.854 418.854 C 370.981 466.726 307.989 490.7 245.1 490.7 C 182.211 490.7 119.219 466.726 71.346 418.854 Z M 24.963 245.1 C 24.95 301.536 46.376 357.869 89.354 400.846 C 132.331 443.824 188.664 465.275 245.1 465.275 C 301.536 465.275 357.869 443.824 400.846 400.846 C 443.824 357.869 465.275 301.536 465.275 245.1 C 465.275 188.664 443.824 132.331 400.846 89.354 C 357.869 46.376 301.536 24.925 245.1 24.925 C 188.664 24.925 132.316 46.36 89.354 89.354 C 46.41 132.316 24.975 188.664 24.962 245.1 Z M 232.6 324.491 L 232.6 257.7 L 165.801 257.7 C 162.348 257.727 159.11 256.317 156.834 254.041 C 154.558 251.765 153.123 248.504 153.1 245.003 C 153.071 241.548 154.483 238.31 156.759 236.034 C 159.035 233.758 162.298 232.322 165.8 232.3 L 232.6 232.3 L 232.6 165.501 C 232.573 162.048 233.983 158.81 236.259 156.534 C 238.535 154.258 241.796 152.823 245.297 152.8 C 248.752 152.771 251.99 154.183 254.266 156.459 C 256.542 158.735 257.978 161.998 258 165.5 L 258 232.3 L 324.8 232.3 C 328.252 232.273 331.49 233.683 333.766 235.959 C 336.042 238.235 337.5 241.498 337.5 245 C 337.5 248.503 335.997 251.787 333.746 254.061 C 331.379 256.307 328.206 257.777 324.7 257.8 L 257.9 257.8 L 257.9 324.6 C 257.878 328.103 256.397 331.387 254.146 333.661 C 251.779 335.907 248.606 337.4 245.1 337.4 C 241.598 337.4 238.332 335.94 236.08 333.637 C 233.828 331.334 232.473 328.044 232.6 324.491 Z"/>
</svg>